<?xml version="1.0" encoding="UTF-8"?>
<svg id="Ebene_1" xmlns="http://www.w3.org/2000/svg" version="1.1" viewBox="0 0 626.99 626.99">
  <!-- Generator: Adobe Illustrator 30.4.0, SVG Export Plug-In . SVG Version: 2.1.4 Build 226)  -->
  <path d="M383.95,292.19v39.57h81.5v110.08c-13,6.77-27.34,11.92-43,15.47-15.67,3.55-30.67,5.33-45,5.33-21.67,0-41.5-3.72-59.5-11.16-18-7.43-33.42-17.83-46.25-31.2-12.84-13.36-22.84-29.17-30-47.43-5.08-12.93-8.32-26.63-9.8-41.09h115.96v-39.58h-115.65c1.6-13.58,4.74-26.44,9.49-38.54,7.16-18.26,17.16-33.99,30-47.18,12.83-13.19,27.91-23.5,45.25-30.94,17.33-7.43,36.16-11.16,56.5-11.16,18,0,35.58,3.55,52.75,10.65,17.16,7.1,31.75,17.25,43.75,30.44l31.5-33.48c-17-17.25-36.25-29.42-57.75-36.52-21.5-7.1-43.92-10.65-67.25-10.65-26.67,0-51.5,4.57-74.5,13.7-23,9.13-43.17,21.9-60.5,38.3-17.34,16.41-30.92,36.19-40.75,59.35-7.32,17.23-11.9,35.91-13.78,56.04h-67.38v39.58h67.13c1.61,21.01,6.01,40.56,13.28,58.59,9.33,23.17,22.41,43.04,39.25,59.6,16.83,16.57,36.75,29.42,59.75,38.55,23,9.13,48.33,13.7,76,13.7,23,0,45.75-2.71,68.25-8.12,22.5-5.41,43.91-13.86,64.25-25.36v-176.53h-123.5Z"/>
</svg>